<?xml version="1.0" encoding="utf-8"?>
<!-- Generator: Adobe Illustrator 25.2.0, SVG Export Plug-In . SVG Version: 6.00 Build 0)  -->
<svg version="1.1" id="Layer_1" xmlns="http://www.w3.org/2000/svg" xmlns:xlink="http://www.w3.org/1999/xlink" x="0px" y="0px"
	 viewBox="0 0 1280 769" style="enable-background:new 0 0 1280 769;" xml:space="preserve">
<style type="text/css">
	.st0{fill:url(#SVGID_1_);}
	.st1{fill:url(#SVGID_2_);}
	.st2{fill:url(#SVGID_3_);}
	.st3{fill:url(#SVGID_4_);}
	.st4{fill:url(#SVGID_5_);}
	.st5{fill:url(#SVGID_6_);}
	.st6{fill:url(#SVGID_7_);}
	.st7{fill:url(#SVGID_8_);}
	.st8{fill:url(#SVGID_9_);}
	.st9{fill:url(#SVGID_10_);}
	.st10{fill:url(#SVGID_11_);}
	.st11{fill:url(#SVGID_12_);}
	.st12{fill:url(#SVGID_13_);}
	.st13{fill:url(#SVGID_14_);}
	.st14{fill:url(#SVGID_15_);}
	.st15{fill:url(#SVGID_16_);}
	.st16{fill:url(#SVGID_17_);}
	.st17{fill:url(#SVGID_18_);}
	.st18{fill:url(#SVGID_19_);}
	.st19{fill:url(#SVGID_20_);}
	.st20{fill:url(#SVGID_21_);}
	.st21{fill:url(#SVGID_22_);}
	.st22{fill:url(#SVGID_23_);}
	.st23{fill:url(#SVGID_24_);}
	.st24{fill:url(#SVGID_25_);}
	.st25{fill:url(#SVGID_26_);}
	.st26{fill:url(#SVGID_27_);}
	.st27{fill:url(#SVGID_28_);}
	.st28{fill:url(#SVGID_29_);}
	.st29{fill:url(#SVGID_30_);}
	.st30{fill:url(#SVGID_31_);}
	.st31{fill:url(#SVGID_32_);}
	.st32{fill:url(#SVGID_33_);}
	.st33{fill:url(#SVGID_34_);}
	.st34{fill:url(#SVGID_35_);}
	.st35{fill:url(#SVGID_36_);}
	.st36{fill:url(#SVGID_37_);}
	.st37{fill:url(#SVGID_38_);}
	.st38{fill:url(#SVGID_39_);}
	.st39{fill:url(#SVGID_40_);}
	.st40{fill:#F2F2F2;}
	.st41{fill:url(#SVGID_41_);}
	.st42{fill:url(#SVGID_42_);}
	.st43{fill:url(#SVGID_43_);}
	.st44{fill:url(#SVGID_44_);}
	.st45{fill:url(#SVGID_45_);}
	.st46{fill:url(#SVGID_46_);}
	.st47{fill:url(#SVGID_47_);}
	.st48{fill:url(#SVGID_48_);}
	.st49{fill:url(#SVGID_49_);}
	.st50{fill:url(#SVGID_50_);}
	.st51{fill:url(#SVGID_51_);}
	.st52{fill:url(#SVGID_52_);}
	.st53{fill:url(#SVGID_53_);}
	.st54{fill:url(#SVGID_54_);}
	.st55{fill:url(#SVGID_55_);}
	.st56{fill:url(#SVGID_56_);}
	.st57{fill:url(#SVGID_57_);}
	.st58{fill:url(#SVGID_58_);}
	.st59{fill:url(#SVGID_59_);}
	.st60{fill:url(#SVGID_60_);}
	.st61{fill:url(#SVGID_61_);}
	.st62{fill:url(#SVGID_62_);}
	.st63{fill:url(#SVGID_63_);}
	.st64{fill:url(#SVGID_64_);}
	.st65{fill:url(#SVGID_65_);}
	.st66{fill:url(#SVGID_66_);}
	.st67{fill:url(#SVGID_67_);}
	.st68{fill:url(#SVGID_68_);}
	.st69{fill:url(#SVGID_69_);}
	.st70{fill:url(#SVGID_70_);}
	.st71{fill:url(#SVGID_71_);}
	.st72{fill:url(#SVGID_72_);}
	.st73{fill:url(#SVGID_73_);}
	.st74{fill:url(#SVGID_74_);}
	.st75{fill:url(#SVGID_75_);}
	.st76{fill:url(#SVGID_76_);}
	.st77{fill:url(#SVGID_77_);}
	.st78{fill:url(#SVGID_78_);}
	.st79{fill:url(#SVGID_79_);}
	.st80{fill:url(#SVGID_80_);}
</style>
<rect class="st40" width="1280" height="769"/>
<g>
	<g>
		<g>
			<linearGradient id="SVGID_1_" gradientUnits="userSpaceOnUse" x1="646.6008" y1="239.3615" x2="736.7468" y2="239.3615">
				<stop  offset="0" style="stop-color:#00B3FF"/>
				<stop  offset="1" style="stop-color:#1D75BC"/>
			</linearGradient>
			<path class="st0" d="M713.5,228.3c7.8,6.7,15.9,13.1,23.3,20.1c-15.3-4.3-31.4-4.7-47.1-2.9c9.3,2.3,19.1,1.5,28.5,3.5
				c-23.8,0.7-47.7,1-71.5,1.4c3.8-2.6,7.6-5.1,11.5-7.6c0.8,1.3,1.5,2.6,2.3,4c2.9-2.8,5.8-5.7,8.6-8.7c0.7,0.6,1.5,1.3,2.2,1.9
				c2.1-2.1,4.2-4.2,6.3-6.4c1.7,1.6,3.5,3.3,5.2,4.9c1.9-2.3,3.9-4.5,5.8-6.7c4,3.6,7.8,7.4,11.6,11.3
				C703.1,236.7,709.5,233.7,713.5,228.3z"/>
			<linearGradient id="SVGID_2_" gradientUnits="userSpaceOnUse" x1="627.8604" y1="284.5663" x2="737.5748" y2="284.5663">
				<stop  offset="0" style="stop-color:#00B3FF"/>
				<stop  offset="1" style="stop-color:#1D75BC"/>
			</linearGradient>
			<path class="st1" d="M736.6,252.5c4.6,10.3-7.6,16.8-14.9,21.3c-29.4,15.6-62.2,23.8-91.6,39.6c0,0.8-0.1,2.5-0.2,3.4
				c-0.6-4.7-1.3-9.3-2-13.9c1.5-0.4,2.9-0.7,4.4-1.1c0.5-1.2,0.9-2.4,1.4-3.6c6.5-1.9,11-5.1,14.3-11.1c11.3-0.7,23.9-2.3,35.2-0.7
				c6.4,1.3,12-2.5,17.7-4.6c11-4.8,22.4-9.5,31.2-17.9C735.3,260.9,735.9,256.5,736.6,252.5z"/>
			<linearGradient id="SVGID_3_" gradientUnits="userSpaceOnUse" x1="641.0805" y1="354.415" x2="807.5656" y2="354.415">
				<stop  offset="0" style="stop-color:#00B3FF"/>
				<stop  offset="1" style="stop-color:#1D75BC"/>
			</linearGradient>
			<path class="st2" d="M751.4,261.1c2.5,4,2,9.2-0.8,12.9c-7.4,10.2-19.1,15.6-29.6,21.8c48.4,19.8,83.5,68.1,86.6,120.4
				c-19.1,0-38.3,0.1-57.4,0c-0.9-5.8-2.2-11.6-3.9-17.2c-33.8,18.7-69.2,34.8-105.2,48.8c32-17.2,65.8-31.2,97.3-49.6
				c7.9-4.8,16.5-10,20.8-18.6c2.9-6.3-3.1-12-8-15c-18.9-11.3-40.8-15.6-61.6-22.3c-7.2-2.8-15.6-5.7-19.4-12.9
				c-2.2-7.4,4.5-13.3,10.1-17c18.5-12,39.8-19.1,58-31.7C744.8,276.1,752.5,270.1,751.4,261.1z"/>
			<linearGradient id="SVGID_4_" gradientUnits="userSpaceOnUse" x1="527.3083" y1="360.0356" x2="612.2098" y2="360.0356">
				<stop  offset="0" style="stop-color:#00B3FF"/>
				<stop  offset="1" style="stop-color:#1D75BC"/>
			</linearGradient>
			<path class="st3" d="M527.3,416c2.7-45.3,30.5-89.7,70.2-111.9c-1.4,6.4,8.8,7.5-5.5,20c4.8,3.4,8.2,8.2,11.1,13.2
				c-0.6,0.2,9.7,1.9,9.1,2.1c-3.1,10.6-11,22-14.2,32.5c-2.7,9.2-6.2,17.2-7.5,26.6C569.4,404.3,548.4,410.2,527.3,416z"/>
			<linearGradient id="SVGID_5_" gradientUnits="userSpaceOnUse" x1="628.2435" y1="363.8094" x2="662.77" y2="363.8094">
				<stop  offset="0" style="stop-color:#00B3FF"/>
				<stop  offset="1" style="stop-color:#1D75BC"/>
			</linearGradient>
			<path class="st4" d="M628.2,341.3c11.7,8.4,26.7,14.2,34.4,26.8c1.9,12.8-17.5,14.7-26.4,18.1c-0.6-1.3-0.6-2.7-1.1-4.1
				c7.6-2.8,19.4-3.8,23.6-11.5c-5.5-9.6-16.5-14.2-25-20.6c-1.2,0.3-2.5,0.6-3.7,0.9C629.4,347.8,628.8,344.6,628.2,341.3z"/>
			<linearGradient id="SVGID_6_" gradientUnits="userSpaceOnUse" x1="604.282" y1="390.2974" x2="624.1482" y2="390.2974">
				<stop  offset="0" style="stop-color:#00B3FF"/>
				<stop  offset="1" style="stop-color:#1D75BC"/>
			</linearGradient>
			<path class="st5" d="M604.9,390.8c5.8-1.6,11.5-3.2,17.3-4.9c0.6,1.2,1.3,2.5,2,3.7c-6.6,1.7-13.2,3.6-19.9,5.2
				C604.5,393.4,604.7,392.1,604.9,390.8z"/>
		</g>
		<linearGradient id="SVGID_7_" gradientUnits="userSpaceOnUse" x1="627.7355" y1="229.5239" x2="627.7355" y2="424.6314">
			<stop  offset="0" style="stop-color:#636162"/>
			<stop  offset="1" style="stop-color:#211F20"/>
		</linearGradient>
		<path class="st6" d="M643.6,428.4l8.6-2.5v-1.1c0,0,8.8-0.6,16.2-8.3c0,0-0.6-2.6-2.3-2.6c-1.6,0,0.2,1.3-6.1,1.3s-6.3,0-7.9-1.3
			c-1.6-1.3-5.7-4.7-5.7-4.7h1.8c0,0-4.2-12.5-7.2-16.8s-6.9-14.6-6.9-21.4s0.1-5.8-3.1-13.7c-3.2-7.9-6.2-29-4.7-31.3
			c1.4-2.3,4.6-1.8,4.6-1.8s-1.3-17.6-3-21.1l5.3-0.5l0.1-4.3h4.6l1.8-2.3h2.3l3.8-4.7h1.9l-0.7-1.4l2.8-2.9h-4.1l-2.1,1.9h-5
			c0,0,1-3.1-1.6-2.8c-2.6,0.3-5.9,3.6-5.9,3.6l-5.3,0.2c0,0,1.6-6.3,0.9-17.4c0,0-5-8.8-5.8-12.7c-0.8-4,0.6-2.2,0.6-2.2
			s3.7,3.2,4.2,2.6s1-3.2,1.8-3c0.8,0.2,0.1-0.8,1.2-0.7s1.1,0.1,1.1,0.1s-0.8-1.7,0.6-1.7s2.9,1.1,3.5,0c0.6-1.1-0.6-4.7-0.6-4.7
			s0.3-2.6,1.8-2.6s2.8-2,3.8-4.3c1-2.2,1.6-5.3-3.5-10.5s-9.6-4.3-12.3-3.5c-2.8,0.8-5.8,2.2-7.1,4.9c-1.3,2.6-3,4-3,4
			s0.5,4.9,0,5.2c-0.5,0.3-3,4.4-3.7,4.4c-0.7,0-3.3-0.9-3.7-0.6c-0.4,0.3-0.6,1.4-2.3,3.8c-1.7,2.3-13.7,13.9-12.4,21
			s4.1,14.9,3.4,18.5s-1.1,6.3,0.6,8.4c1.7,2.1,1.7,3.9,1.7,3.9s-0.3,6.5-1.8,9.6c-1.5,3.2-5.3,11.6-3.9,14.6l3.9,0.2l11.4,16.1
			l-6-5.8c0,0-3,14.1-3.7,21.7s-1.1,8.2-2.5,13.4c-1.4,5.2-3.5,18.5-3.4,24.2c0.2,5.8-1.4,5.6-2.3,8.5c-0.9,2.8-0.1,3.2,0.6,4.5
			c0.7,1.3-0.1,2.3,0.1,4.6s-0.9,2.5-1.6,4.1c-0.7,1.6,0,9.5,0,9.5s11.3,1.4,11.6,0.7c0.4-0.7,0.2-1.9,1.1-1.9s10.7,1.3,14.8-0.2
			c4.1-1.5,5.8-0.8,5.9-2.2c0.1-1.4,0.1-2.6-1.8-2.6c-1.9,0-5.8-0.1-8.2-1.2c-2.5-1.1-8.2-4.5-9.2-7c0,0,1.8,1.8,1.8-0.4
			c0-2.1,0.5-2.7-0.5-3.6c-0.9-0.9-1.4-1.6-1.1-3.3c0.4-1.6,1.5-4.5,2.7-10.3c1.2-5.9,2.9-17.1,3.5-20s0-1.4,0.8-5.1
			c0.8-3.8,5.3-12.6,5.3-12.6s2.3,8.9,3.8,13.2c1.5,4.2,3.3,16,4.7,17.5c1.4,1.5,4.7,8,7.3,12.4c2.6,4.4,1.4,7.3,1.4,7.3
			s1.5,1.1,2,1.8c0.5,0.8-0.6,2.3,0.8,2.7c1.4,0.5,3.5-0.2,3.5-0.2s2.4,1.1,2.7,3.2c0.3,2.1-2,0.9,0,4.8
			C642.1,424.6,643.6,428.4,643.6,428.4z"/>
	</g>
	<g>
		<g>
			<linearGradient id="SVGID_8_" gradientUnits="userSpaceOnUse" x1="406.2792" y1="437.1363" x2="406.2792" y2="509.3287">
				<stop  offset="0" style="stop-color:#999999"/>
				<stop  offset="1" style="stop-color:#211F20"/>
			</linearGradient>
			<path class="st7" d="M398.6,477.4l-3.6,13h-11.9l15.5-50.7h15l15.8,50.7h-12.4l-3.9-13H398.6z M411.5,468.8l-3.2-10.8
				c-0.9-3-1.8-6.8-2.5-9.8h-0.2c-0.7,3-1.5,6.8-2.3,9.8l-3,10.8H411.5z"/>
			<linearGradient id="SVGID_9_" gradientUnits="userSpaceOnUse" x1="454.1243" y1="437.1363" x2="454.1243" y2="509.3287">
				<stop  offset="0" style="stop-color:#999999"/>
				<stop  offset="1" style="stop-color:#211F20"/>
			</linearGradient>
			<path class="st8" d="M435.3,466c0-4.8-0.1-8.9-0.3-12.4h10l0.5,5.2h0.2c2.7-3.9,6.9-6,12.3-6c8.1,0,15.3,7,15.3,18.8
				c0,13.4-8.6,19.7-16.8,19.7c-4.4,0-7.9-1.8-9.5-4.2h-0.2v18.3h-11.5V466z M446.8,474.6c0,0.9,0.1,1.7,0.2,2.4
				c0.7,3.1,3.4,5.4,6.7,5.4c4.9,0,7.9-4.2,7.9-10.4c0-5.9-2.6-10.3-7.7-10.3c-3.2,0-6.2,2.4-6.8,5.8c-0.2,0.7-0.3,1.4-0.3,2V474.6z
				"/>
			<linearGradient id="SVGID_10_" gradientUnits="userSpaceOnUse" x1="499.1291" y1="437.1363" x2="499.1291" y2="509.3287">
				<stop  offset="0" style="stop-color:#999999"/>
				<stop  offset="1" style="stop-color:#211F20"/>
			</linearGradient>
			<path class="st9" d="M480.3,466c0-4.8-0.1-8.9-0.3-12.4h10l0.5,5.2h0.2c2.7-3.9,6.9-6,12.3-6c8.1,0,15.3,7,15.3,18.8
				c0,13.4-8.6,19.7-16.8,19.7c-4.4,0-7.9-1.8-9.5-4.2h-0.2v18.3h-11.5V466z M491.8,474.6c0,0.9,0.1,1.7,0.2,2.4
				c0.7,3.1,3.4,5.4,6.7,5.4c4.9,0,7.9-4.2,7.9-10.4c0-5.9-2.6-10.3-7.7-10.3c-3.2,0-6.2,2.4-6.8,5.8c-0.2,0.7-0.3,1.4-0.3,2V474.6z
				"/>
			<linearGradient id="SVGID_11_" gradientUnits="userSpaceOnUse" x1="557.118" y1="435.7642" x2="557.118" y2="509.9057">
				<stop  offset="0" style="stop-color:#00B3FF"/>
				<stop  offset="1" style="stop-color:#1D75BC"/>
			</linearGradient>
			<path class="st10" d="M571.1,469h-18.7V481h20.9v9.4H541v-50.7h31.2v9.4h-19.8v10.6h18.7V469z"/>
			<linearGradient id="SVGID_12_" gradientUnits="userSpaceOnUse" x1="595.6506" y1="435.7642" x2="595.6506" y2="509.9057">
				<stop  offset="0" style="stop-color:#00B3FF"/>
				<stop  offset="1" style="stop-color:#1D75BC"/>
			</linearGradient>
			<path class="st11" d="M589.5,453.6l3.6,6.2c1.1,1.9,2.1,3.7,3,5.5h0.2c0.9-2,1.9-3.8,2.8-5.7l3.2-6h12.4l-12.1,17.6l12.3,19.3
				h-13l-3.7-6.6c-1-1.8-2-3.7-2.9-5.6h-0.2c-0.9,2-1.9,3.8-2.8,5.6l-3.5,6.6h-12.5l12.5-18.8l-12.2-18.1H589.5z"/>
			<linearGradient id="SVGID_13_" gradientUnits="userSpaceOnUse" x1="638.5842" y1="435.7642" x2="638.5842" y2="509.9057">
				<stop  offset="0" style="stop-color:#00B3FF"/>
				<stop  offset="1" style="stop-color:#1D75BC"/>
			</linearGradient>
			<path class="st12" d="M619.8,466c0-4.8-0.1-8.9-0.3-12.4h10l0.5,5.2h0.2c2.7-3.9,6.9-6,12.3-6c8.1,0,15.3,7,15.3,18.8
				c0,13.4-8.6,19.7-16.8,19.7c-4.4,0-7.9-1.8-9.5-4.2h-0.2v18.3h-11.5V466z M631.2,474.6c0,0.9,0.1,1.7,0.2,2.4
				c0.7,3.1,3.4,5.4,6.7,5.4c4.9,0,7.9-4.2,7.9-10.4c0-5.9-2.6-10.3-7.7-10.3c-3.2,0-6.2,2.4-6.8,5.8c-0.2,0.7-0.3,1.4-0.3,2V474.6z
				"/>
			<linearGradient id="SVGID_14_" gradientUnits="userSpaceOnUse" x1="680.4219" y1="435.7642" x2="680.4219" y2="509.9057">
				<stop  offset="0" style="stop-color:#00B3FF"/>
				<stop  offset="1" style="stop-color:#1D75BC"/>
			</linearGradient>
			<path class="st13" d="M673.8,475.7c0.3,4.8,5,7,10.4,7c3.9,0,7-0.5,10.1-1.6l1.5,7.7c-3.8,1.6-8.4,2.3-13.3,2.3
				c-12.5,0-19.6-7.3-19.6-18.7c0-9.4,5.8-19.7,18.6-19.7c11.9,0,16.4,9.3,16.4,18.4c0,2-0.2,3.7-0.4,4.5H673.8z M687.3,467.8
				c0-2.8-1.2-7.5-6.4-7.5c-4.8,0-6.8,4.4-7.1,7.5H687.3z"/>
			<linearGradient id="SVGID_15_" gradientUnits="userSpaceOnUse" x1="721.689" y1="435.7642" x2="721.689" y2="509.9057">
				<stop  offset="0" style="stop-color:#00B3FF"/>
				<stop  offset="1" style="stop-color:#1D75BC"/>
			</linearGradient>
			<path class="st14" d="M740.4,437v42.4c0,4.2,0.1,8.5,0.3,11h-10.2l-0.5-5.4h-0.2c-2.3,4.1-6.8,6.2-11.5,6.2
				c-8.7,0-15.7-7.5-15.7-18.9c-0.1-12.4,7.7-19.6,16.5-19.6c4.6,0,8,1.6,9.7,4.2h0.2V437H740.4z M729,469.2c0-0.6,0-1.4-0.1-2.1
				c-0.7-3.1-3.1-5.6-6.6-5.6c-5.2,0-7.9,4.7-7.9,10.5c0,6.2,3.1,10.1,7.8,10.1c3.3,0,5.9-2.3,6.6-5.5c0.2-0.8,0.2-1.7,0.2-2.6
				V469.2z"/>
			<linearGradient id="SVGID_16_" gradientUnits="userSpaceOnUse" x1="755.3416" y1="435.7642" x2="755.3416" y2="509.9057">
				<stop  offset="0" style="stop-color:#00B3FF"/>
				<stop  offset="1" style="stop-color:#1D75BC"/>
			</linearGradient>
			<path class="st15" d="M761.4,443.3c0,3.2-2.3,5.7-6.2,5.7c-3.6,0-6-2.5-6-5.7c0-3.3,2.4-5.7,6.1-5.7
				C759,437.6,761.4,440.1,761.4,443.3z M749.6,490.4v-36.8h11.5v36.8H749.6z"/>
			<linearGradient id="SVGID_17_" gradientUnits="userSpaceOnUse" x1="779.0735" y1="435.7642" x2="779.0735" y2="509.9057">
				<stop  offset="0" style="stop-color:#00B3FF"/>
				<stop  offset="1" style="stop-color:#1D75BC"/>
			</linearGradient>
			<path class="st16" d="M783,443.1v10.5h8.2v8.4H783v13.3c0,4.4,1.1,6.5,4.5,6.5c1.5,0,2.6-0.2,3.4-0.3l0.1,8.7
				c-1.5,0.5-4.2,1-7.4,1c-3.7,0-6.8-1.3-8.6-3.2c-2.1-2.2-3.2-5.7-3.2-10.9V462h-4.9v-8.4h4.9v-7.9L783,443.1z"/>
			<linearGradient id="SVGID_18_" gradientUnits="userSpaceOnUse" x1="803.5814" y1="435.7642" x2="803.5814" y2="509.9057">
				<stop  offset="0" style="stop-color:#00B3FF"/>
				<stop  offset="1" style="stop-color:#1D75BC"/>
			</linearGradient>
			<path class="st17" d="M809.6,443.3c0,3.2-2.3,5.7-6.2,5.7c-3.6,0-6-2.5-6-5.7c0-3.3,2.4-5.7,6.1-5.7
				C807.3,437.6,809.6,440.1,809.6,443.3z M797.8,490.4v-36.8h11.5v36.8H797.8z"/>
			<linearGradient id="SVGID_19_" gradientUnits="userSpaceOnUse" x1="835.5826" y1="435.7642" x2="835.5826" y2="509.9057">
				<stop  offset="0" style="stop-color:#00B3FF"/>
				<stop  offset="1" style="stop-color:#1D75BC"/>
			</linearGradient>
			<path class="st18" d="M854.8,471.6c0,13.5-9.5,19.6-19.4,19.6c-10.7,0-19-7.1-19-19c0-11.9,7.8-19.5,19.7-19.5
				C847.3,452.7,854.8,460.5,854.8,471.6z M828.2,472c0,6.3,2.7,11.1,7.5,11.1c4.5,0,7.3-4.5,7.3-11.1c0-5.4-2.1-11-7.3-11
				C830.3,460.9,828.2,466.5,828.2,472z"/>
			<linearGradient id="SVGID_20_" gradientUnits="userSpaceOnUse" x1="879.2263" y1="435.7642" x2="879.2263" y2="509.9057">
				<stop  offset="0" style="stop-color:#00B3FF"/>
				<stop  offset="1" style="stop-color:#1D75BC"/>
			</linearGradient>
			<path class="st19" d="M861.9,465.3c0-4.6-0.1-8.5-0.3-11.8h9.9l0.5,5.1h0.2c1.5-2.4,5.2-5.9,11.4-5.9c7.5,0,13.2,5,13.2,15.9
				v21.8h-11.5V470c0-4.7-1.7-8-5.8-8c-3.2,0-5,2.2-5.8,4.3c-0.3,0.7-0.4,1.8-0.4,2.8v21.3h-11.5V465.3z"/>
		</g>
	</g>
	<g>
		<linearGradient id="SVGID_21_" gradientUnits="userSpaceOnUse" x1="491.4599" y1="511.5996" x2="491.4599" y2="543.9958">
			<stop  offset="0" style="stop-color:#999999"/>
			<stop  offset="1" style="stop-color:#211F20"/>
		</linearGradient>
		<path class="st20" d="M497.5,524.2h-8.1v5.2h9v4.1h-14v-21.9H498v4.1h-8.5v4.6h8.1V524.2z"/>
		<linearGradient id="SVGID_22_" gradientUnits="userSpaceOnUse" x1="509.1606" y1="511.6172" x2="509.1606" y2="544.0134">
			<stop  offset="0" style="stop-color:#999999"/>
			<stop  offset="1" style="stop-color:#211F20"/>
		</linearGradient>
		<path class="st21" d="M501.7,522.7c0-2-0.1-3.7-0.1-5.1h4.3l0.2,2.2h0.1c0.6-1,2.3-2.6,4.9-2.6c3.2,0,5.7,2.2,5.7,6.8v9.4h-4.9
			v-8.8c0-2-0.7-3.5-2.5-3.5c-1.4,0-2.2,1-2.5,1.9c-0.1,0.3-0.2,0.8-0.2,1.2v9.2h-4.9V522.7z"/>
		<linearGradient id="SVGID_23_" gradientUnits="userSpaceOnUse" x1="524.3347" y1="511.6172" x2="524.3347" y2="544.0134">
			<stop  offset="0" style="stop-color:#999999"/>
			<stop  offset="1" style="stop-color:#211F20"/>
		</linearGradient>
		<path class="st22" d="M526,513.1v4.5h3.6v3.6H526v5.8c0,1.9,0.5,2.8,2,2.8c0.6,0,1.1-0.1,1.5-0.1l0,3.8c-0.6,0.2-1.8,0.4-3.2,0.4
			c-1.6,0-2.9-0.6-3.7-1.4c-0.9-0.9-1.4-2.5-1.4-4.7v-6.5h-2.1v-3.6h2.1v-3.4L526,513.1z"/>
		<linearGradient id="SVGID_24_" gradientUnits="userSpaceOnUse" x1="538.9229" y1="511.6172" x2="538.9229" y2="544.0134">
			<stop  offset="0" style="stop-color:#999999"/>
			<stop  offset="1" style="stop-color:#211F20"/>
		</linearGradient>
		<path class="st23" d="M536.1,527.1c0.1,2.1,2.2,3,4.5,3c1.7,0,3-0.2,4.4-0.7l0.7,3.3c-1.6,0.7-3.6,1-5.8,1c-5.4,0-8.5-3.1-8.5-8.1
			c0-4,2.5-8.5,8-8.5c5.2,0,7.1,4,7.1,7.9c0,0.9-0.1,1.6-0.2,2H536.1z M541.9,523.7c0-1.2-0.5-3.2-2.8-3.2c-2.1,0-2.9,1.9-3.1,3.2
			H541.9z"/>
		<linearGradient id="SVGID_25_" gradientUnits="userSpaceOnUse" x1="554.2378" y1="511.6172" x2="554.2378" y2="544.0134">
			<stop  offset="0" style="stop-color:#999999"/>
			<stop  offset="1" style="stop-color:#211F20"/>
		</linearGradient>
		<path class="st24" d="M549.4,522.8c0-2.3,0-3.9-0.1-5.2h4.2l0.2,2.9h0.1c0.8-2.3,2.8-3.3,4.3-3.3c0.5,0,0.7,0,1.1,0.1v4.6
			c-0.4-0.1-0.8-0.1-1.3-0.1c-1.8,0-3.1,1-3.4,2.5c-0.1,0.3-0.1,0.7-0.1,1.1v8h-4.9V522.8z"/>
		<linearGradient id="SVGID_26_" gradientUnits="userSpaceOnUse" x1="574.8864" y1="511.6172" x2="574.8864" y2="544.0134">
			<stop  offset="0" style="stop-color:#999999"/>
			<stop  offset="1" style="stop-color:#211F20"/>
		</linearGradient>
		<path class="st25" d="M572,517.6l2.4,7.8c0.3,0.9,0.6,2.1,0.8,3h0.1c0.2-0.9,0.5-2,0.7-3l2-7.8h5.3l-3.7,10.5
			c-2.3,6.3-3.8,8.8-5.6,10.4c-1.7,1.5-3.5,2-4.8,2.2l-1.1-4.2c0.6-0.1,1.4-0.4,2.2-0.8c0.8-0.4,1.6-1.2,2-2
			c0.2-0.2,0.3-0.5,0.3-0.7c0-0.2,0-0.4-0.2-0.8l-5.8-14.5H572z"/>
		<linearGradient id="SVGID_27_" gradientUnits="userSpaceOnUse" x1="592.209" y1="511.6172" x2="592.209" y2="544.0134">
			<stop  offset="0" style="stop-color:#999999"/>
			<stop  offset="1" style="stop-color:#211F20"/>
		</linearGradient>
		<path class="st26" d="M600.5,525.4c0,5.8-4.1,8.5-8.4,8.5c-4.6,0-8.2-3.1-8.2-8.2c0-5.1,3.4-8.4,8.5-8.4
			C597.3,517.2,600.5,520.6,600.5,525.4z M589,525.5c0,2.7,1.1,4.8,3.3,4.8c1.9,0,3.1-1.9,3.1-4.8c0-2.3-0.9-4.8-3.1-4.8
			C589.9,520.8,589,523.2,589,525.5z"/>
		<linearGradient id="SVGID_28_" gradientUnits="userSpaceOnUse" x1="611.0866" y1="511.6172" x2="611.0866" y2="544.0134">
			<stop  offset="0" style="stop-color:#999999"/>
			<stop  offset="1" style="stop-color:#211F20"/>
		</linearGradient>
		<path class="st27" d="M618.5,528.4c0,2.1,0.1,3.8,0.1,5.1h-4.3l-0.2-2.2H614c-0.6,1-2.1,2.6-5,2.6c-3.2,0-5.6-2-5.6-6.9v-9.3h4.9
			v8.5c0,2.3,0.7,3.7,2.5,3.7c1.3,0,2.1-0.9,2.5-1.7c0.1-0.3,0.2-0.7,0.2-1v-9.5h4.9V528.4z"/>
		<linearGradient id="SVGID_29_" gradientUnits="userSpaceOnUse" x1="627.3121" y1="511.6172" x2="627.3121" y2="544.0134">
			<stop  offset="0" style="stop-color:#999999"/>
			<stop  offset="1" style="stop-color:#211F20"/>
		</linearGradient>
		<path class="st28" d="M622.5,522.8c0-2.3,0-3.9-0.1-5.2h4.2l0.2,2.9h0.1c0.8-2.3,2.8-3.3,4.3-3.3c0.5,0,0.7,0,1.1,0.1v4.6
			c-0.4-0.1-0.8-0.1-1.3-0.1c-1.8,0-3.1,1-3.4,2.5c-0.1,0.3-0.1,0.7-0.1,1.1v8h-4.9V522.8z"/>
		<linearGradient id="SVGID_30_" gradientUnits="userSpaceOnUse" x1="649.973" y1="511.5996" x2="649.973" y2="543.9958">
			<stop  offset="0" style="stop-color:#999999"/>
			<stop  offset="1" style="stop-color:#211F20"/>
		</linearGradient>
		<path class="st29" d="M646.6,527.9l-1.5,5.6H640l6.7-21.9h6.5l6.8,21.9h-5.3l-1.7-5.6H646.6z M652.2,524.2l-1.4-4.7
			c-0.4-1.3-0.8-2.9-1.1-4.2h-0.1c-0.3,1.3-0.7,2.9-1,4.2l-1.3,4.6H652.2z"/>
		<linearGradient id="SVGID_31_" gradientUnits="userSpaceOnUse" x1="670.6204" y1="511.6172" x2="670.6204" y2="544.0134">
			<stop  offset="0" style="stop-color:#999999"/>
			<stop  offset="1" style="stop-color:#211F20"/>
		</linearGradient>
		<path class="st30" d="M662.5,522.9c0-2.1-0.1-3.9-0.1-5.3h4.3l0.2,2.2h0.1c1.2-1.7,3-2.6,5.3-2.6c3.5,0,6.6,3,6.6,8.1
			c0,5.8-3.7,8.5-7.2,8.5c-1.9,0-3.4-0.8-4.1-1.8h-0.1v7.9h-4.9V522.9z M667.4,526.7c0,0.4,0,0.7,0.1,1c0.3,1.3,1.5,2.3,2.9,2.3
			c2.1,0,3.4-1.8,3.4-4.5c0-2.5-1.1-4.5-3.3-4.5c-1.4,0-2.7,1.1-3,2.5c-0.1,0.3-0.1,0.6-0.1,0.9V526.7z"/>
		<linearGradient id="SVGID_32_" gradientUnits="userSpaceOnUse" x1="690.0417" y1="511.6172" x2="690.0417" y2="544.0134">
			<stop  offset="0" style="stop-color:#999999"/>
			<stop  offset="1" style="stop-color:#211F20"/>
		</linearGradient>
		<path class="st31" d="M681.9,522.9c0-2.1-0.1-3.9-0.1-5.3h4.3l0.2,2.2h0.1c1.2-1.7,3-2.6,5.3-2.6c3.5,0,6.6,3,6.6,8.1
			c0,5.8-3.7,8.5-7.2,8.5c-1.9,0-3.4-0.8-4.1-1.8h-0.1v7.9h-4.9V522.9z M686.9,526.7c0,0.4,0,0.7,0.1,1c0.3,1.3,1.5,2.3,2.9,2.3
			c2.1,0,3.4-1.8,3.4-4.5c0-2.5-1.1-4.5-3.3-4.5c-1.4,0-2.7,1.1-3,2.5c-0.1,0.3-0.1,0.6-0.1,0.9V526.7z"/>
		<linearGradient id="SVGID_33_" gradientUnits="userSpaceOnUse" x1="711.6024" y1="511.5996" x2="711.6024" y2="543.9958">
			<stop  offset="0" style="stop-color:#999999"/>
			<stop  offset="1" style="stop-color:#211F20"/>
		</linearGradient>
		<path class="st32" d="M712.4,511.6h4.9v13.8c0,6.2-3,8.4-7.8,8.4c-1.2,0-2.6-0.2-3.6-0.5l0.6-4c0.7,0.2,1.6,0.4,2.5,0.4
			c2.1,0,3.4-0.9,3.4-4.3V511.6z"/>
		<linearGradient id="SVGID_34_" gradientUnits="userSpaceOnUse" x1="728.581" y1="511.6172" x2="728.581" y2="544.0134">
			<stop  offset="0" style="stop-color:#999999"/>
			<stop  offset="1" style="stop-color:#211F20"/>
		</linearGradient>
		<path class="st33" d="M736.9,525.4c0,5.8-4.1,8.5-8.4,8.5c-4.6,0-8.2-3.1-8.2-8.2c0-5.1,3.4-8.4,8.5-8.4
			C733.6,517.2,736.9,520.6,736.9,525.4z M725.4,525.5c0,2.7,1.1,4.8,3.3,4.8c1.9,0,3.1-1.9,3.1-4.8c0-2.3-0.9-4.8-3.1-4.8
			C726.3,520.8,725.4,523.2,725.4,525.5z"/>
		<linearGradient id="SVGID_35_" gradientUnits="userSpaceOnUse" x1="747.4586" y1="511.6172" x2="747.4586" y2="544.0134">
			<stop  offset="0" style="stop-color:#999999"/>
			<stop  offset="1" style="stop-color:#211F20"/>
		</linearGradient>
		<path class="st34" d="M754.9,528.4c0,2.1,0.1,3.8,0.1,5.1h-4.3l-0.2-2.2h-0.1c-0.6,1-2.1,2.6-5,2.6c-3.2,0-5.6-2-5.6-6.9v-9.3h4.9
			v8.5c0,2.3,0.7,3.7,2.5,3.7c1.3,0,2.1-0.9,2.5-1.7c0.1-0.3,0.2-0.7,0.2-1v-9.5h4.9V528.4z"/>
		<linearGradient id="SVGID_36_" gradientUnits="userSpaceOnUse" x1="763.6841" y1="511.6172" x2="763.6841" y2="544.0134">
			<stop  offset="0" style="stop-color:#999999"/>
			<stop  offset="1" style="stop-color:#211F20"/>
		</linearGradient>
		<path class="st35" d="M758.9,522.8c0-2.3,0-3.9-0.1-5.2h4.2l0.2,2.9h0.1c0.8-2.3,2.8-3.3,4.3-3.3c0.5,0,0.7,0,1.1,0.1v4.6
			c-0.4-0.1-0.8-0.1-1.3-0.1c-1.8,0-3.1,1-3.4,2.5c-0.1,0.3-0.1,0.7-0.1,1.1v8h-4.9V522.8z"/>
		<linearGradient id="SVGID_37_" gradientUnits="userSpaceOnUse" x1="778.6252" y1="511.6172" x2="778.6252" y2="544.0134">
			<stop  offset="0" style="stop-color:#999999"/>
			<stop  offset="1" style="stop-color:#211F20"/>
		</linearGradient>
		<path class="st36" d="M771.1,522.7c0-2-0.1-3.7-0.1-5.1h4.3l0.2,2.2h0.1c0.6-1,2.3-2.6,4.9-2.6c3.2,0,5.7,2.2,5.7,6.8v9.4h-4.9
			v-8.8c0-2-0.7-3.5-2.5-3.5c-1.4,0-2.2,1-2.5,1.9c-0.1,0.3-0.2,0.8-0.2,1.2v9.2h-4.9V522.7z"/>
		<linearGradient id="SVGID_38_" gradientUnits="userSpaceOnUse" x1="796.8251" y1="511.6172" x2="796.8251" y2="544.0134">
			<stop  offset="0" style="stop-color:#999999"/>
			<stop  offset="1" style="stop-color:#211F20"/>
		</linearGradient>
		<path class="st37" d="M794,527.1c0.1,2.1,2.2,3,4.5,3c1.7,0,3-0.2,4.4-0.7l0.7,3.3c-1.6,0.7-3.6,1-5.8,1c-5.4,0-8.5-3.1-8.5-8.1
			c0-4,2.5-8.5,8-8.5c5.2,0,7.1,4,7.1,7.9c0,0.9-0.1,1.6-0.2,2H794z M799.8,523.7c0-1.2-0.5-3.2-2.8-3.2c-2.1,0-2.9,1.9-3.1,3.2
			H799.8z"/>
		<linearGradient id="SVGID_39_" gradientUnits="userSpaceOnUse" x1="813.6921" y1="511.6172" x2="813.6921" y2="544.0134">
			<stop  offset="0" style="stop-color:#999999"/>
			<stop  offset="1" style="stop-color:#211F20"/>
		</linearGradient>
		<path class="st38" d="M810.8,517.6l2.4,7.8c0.3,0.9,0.6,2.1,0.8,3h0.1c0.2-0.9,0.5-2,0.7-3l2-7.8h5.3l-3.7,10.5
			c-2.3,6.3-3.8,8.8-5.6,10.4c-1.7,1.5-3.5,2-4.8,2.2l-1.1-4.2c0.6-0.1,1.4-0.4,2.1-0.8c0.8-0.4,1.6-1.2,2-2
			c0.2-0.2,0.3-0.5,0.3-0.7c0-0.2,0-0.4-0.2-0.8l-5.8-14.5H810.8z"/>
		<linearGradient id="SVGID_40_" gradientUnits="userSpaceOnUse" x1="826.4752" y1="511.5996" x2="826.4752" y2="543.9958">
			<stop  offset="0" style="stop-color:#999999"/>
			<stop  offset="1" style="stop-color:#211F20"/>
		</linearGradient>
		<path class="st39" d="M823.6,530.9c0-1.7,1.2-3,2.9-3c1.7,0,2.9,1.2,2.9,3c0,1.7-1.1,2.9-2.9,2.9
			C824.8,533.8,823.6,532.6,823.6,530.9z M824.6,526.3l-0.7-14.7h5.1l-0.7,14.7H824.6z"/>
	</g>
</g>
</svg>
