<svg xmlns="http://www.w3.org/2000/svg"><g transform="translate(1)" fill="none" fill-rule="evenodd"><path d="M43.502 33.425A2.42 2.42 0 0041.09 31H29.413A2.42 2.42 0 0027 33.425v6.234a2.42 2.42 0 002.413 2.425H41.09a2.418 2.418 0 002.412-2.425v-1.824l3.867-4.41h-3.867zM31 37h8.162" stroke="#6E6C89"></path><circle fill="#2E4FEB" fill-rule="nonzero" cx="16" cy="8" r="8"></circle><path d="M17.714 30.191c0 3.42-2.622 6.192-5.857 6.192C8.622 36.383 6 33.61 6 30.19 6 26.772 8.622 24 11.857 24c3.235 0 5.857 2.772 5.857 6.191zm46 0c0 3.42-2.622 6.192-5.857 6.192-3.235 0-5.857-2.772-5.857-6.192C52 26.772 54.622 24 57.857 24c3.235 0 5.857 2.772 5.857 6.191zM12.506 39h-1.013C5.146 39 0 44.478 0 51.236v5.885h24v-5.885C24 44.478 18.854 39 12.506 39zm46 0h-1.013C51.146 39 46 44.478 46 51.236v5.885h24v-5.885C70 44.478 64.854 39 58.506 39zM18 9.425v6.323c0 1.34 1.08 2.425 2.413 2.425h1.745v6.162l4.455-6.162H37.58a2.419 2.419 0 002.413-2.425V9.425c0-1.34-1.08-2.425-2.413-2.425H20.413A2.419 2.419 0 0018 9.425zM22 13h13.603" stroke="#6E6C89"></path></g></svg>