<svg xmlns="http://www.w3.org/2000/svg"><g transform="translate(1 -1)" fill="none" fill-rule="evenodd"><circle stroke="#605F7D" cx="19" cy="23" r="5"></circle><circle stroke="#605F7D" cx="51" cy="16" r="4"></circle><circle fill="#12A8BD" fill-rule="nonzero" cx="65" cy="9" r="8"></circle><path d="M20.447 40.993L16.625 41l-.809-3.988c-.734-.133-1.47-.33-2.2-.585l-2.681 3.06-3.315-1.903 1.3-3.861a14.531 14.531 0 01-1.61-1.603l-3.855 1.312-1.92-3.312 3.053-2.69a14.558 14.558 0 01-.594-2.193l-3.989-.796L0 20.62l3.986-.802c.135-.739.332-1.478.587-2.206L1.51 14.933l1.91-3.315 3.859 1.3a14.723 14.723 0 011.604-1.61L7.57 7.45l3.309-1.912 2.693 3.05a14.762 14.762 0 012.192-.59l.795-3.991L20.385 4l.801 3.988c.74.135 1.475.329 2.196.581l2.688-3.054 3.313 1.898-1.298 3.863a15.018 15.018 0 011.61 1.606l3.862-1.315 1.904 3.311-3.046 2.691c.254.72.453 1.457.593 2.199l3.988.79.006 3.821-3.986.812c-.137.738-.332 1.47-.583 2.188l3.053 2.685-1.893 3.318-3.869-1.3a14.757 14.757 0 01-1.603 1.609l1.312 3.857-3.307 1.914-2.696-3.049c-.727.258-1.462.455-2.195.59l-.788 3.99zm33.992-10.635l-2.973.37-1.01-3.025a11.315 11.315 0 01-1.767-.245l-1.794 2.637-2.76-1.164.642-3.128a11.389 11.389 0 01-1.404-1.093L40.5 26.099l-1.81-2.393 2.119-2.383a11.41 11.41 0 01-.672-1.65l-3.179-.238-.37-2.973 3.024-1.004c.035-.588.118-1.181.247-1.772l-2.64-1.791 1.17-2.762 3.125.644a11.54 11.54 0 011.094-1.406l-1.389-2.876 2.391-1.803 2.386 2.115a11.57 11.57 0 011.65-.669l.236-3.18 2.976-.37 1.004 3.025a11.45 11.45 0 011.764.242l1.8-2.632 2.758 1.16-.641 3.129c.497.33.968.697 1.406 1.095l2.878-1.391 1.798 2.393-2.113 2.384c.267.536.492 1.09.672 1.654l3.177.234.37 2.972-3.023 1.012a11.658 11.658 0 01-.245 1.758l2.632 1.797-1.156 2.762-3.134-.642c-.327.495-.693.965-1.093 1.404L61.1 26.82l-2.39 1.804-2.388-2.114c-.541.27-1.094.494-1.651.67l-.232 3.178z" stroke="#605F7D"></path></g></svg>