<svg viewBox="0 0 33 37" fill="none" xmlns="http://www.w3.org/2000/svg"> <path d="M9.0834 28.3997H16.2874C17.0744 28.3997 17.7403 27.7284 17.7403 26.9351V20.8938C17.7403 20.1005 17.0744 19.4292 16.2874 19.4292H9.0834C8.29641 19.4292 7.63049 20.1005 7.63049 20.8938V25.5926" stroke="currentColor" stroke-width="1.22047" stroke-miterlimit="10" stroke-linecap="round" stroke-linejoin="round"></path> <path d="M30.0899 19.6122V5.33268V3.0748C30.0899 1.91535 29.1818 1 28.0316 1H6.6618C5.51158 1 4.60352 1.91535 4.60352 3.0748V5.33268V8.32283" stroke="currentColor" stroke-width="1.22047" stroke-miterlimit="10" stroke-linecap="round" stroke-linejoin="round"></path> <path d="M30.3321 28.4607V31.4144V35.7835H4.90625V35.5989" stroke="currentColor" stroke-width="1.22047" stroke-miterlimit="10" stroke-linecap="round" stroke-linejoin="round"></path> <path d="M4.90625 35.1732L4.90625 17.4763" stroke="currentColor" stroke-width="1.22047" stroke-miterlimit="10" stroke-linecap="round" stroke-linejoin="round"></path> <path d="M30.0899 19.6123V5.33276H4.66406V8.2619" stroke="currentColor" stroke-width="1.22047" stroke-miterlimit="10" stroke-linecap="round" stroke-linejoin="round"></path> <path d="M30.09 28.3997V31.3288H8.96234" stroke="currentColor" stroke-width="1.22047" stroke-miterlimit="10" stroke-linecap="round" stroke-linejoin="round"></path> <path d="M20.0406 15.2794V9.4822C20.0406 8.81094 20.5855 8.32275 21.1909 8.32275H25.9734C26.6393 8.32275 27.1236 8.87197 27.1236 9.4822V15.2794C27.1236 15.9507 26.5787 16.4389 25.9734 16.4389H21.2514C20.5855 16.4389 20.0406 15.8897 20.0406 15.2794Z" stroke="currentColor" stroke-width="1.22047" stroke-miterlimit="10" stroke-linecap="round" stroke-linejoin="round"></path> <path d="M17.377 34.5021C17.912 34.5021 18.3456 34.0649 18.3456 33.5257C18.3456 32.9865 17.912 32.5493 17.377 32.5493C16.8421 32.5493 16.4084 32.9865 16.4084 33.5257C16.4084 34.0649 16.8421 34.5021 17.377 34.5021Z" fill="currentColor"></path> <path d="M21.312 3.13587C21.312 3.44099 21.0698 3.74611 20.7066 3.74611H17.1349C16.8322 3.74611 16.5295 3.50201 16.5295 3.13587C16.5295 2.83075 16.7717 2.52563 17.1349 2.52563H20.7066C21.0093 2.58666 21.312 2.83075 21.312 3.13587Z" fill="currentColor"></path> <path d="M15.3792 3.13587C15.3792 3.44099 15.1371 3.74611 14.7738 3.74611H14.0474C13.7447 3.74611 13.442 3.50201 13.442 3.13587C13.442 2.83075 13.6842 2.52563 14.0474 2.52563H14.7738C15.0765 2.58666 15.3792 2.83075 15.3792 3.13587Z" fill="currentColor"></path> <path d="M14.4106 9.4822V15.9507C14.4106 16.622 13.8657 17.1102 13.2604 17.1102H2.18196C1.51604 17.1102 1.03174 16.5609 1.03174 15.9507V9.4822C1.03174 8.81094 1.57658 8.32275 2.18196 8.32275H13.2604C13.8657 8.26173 14.4106 8.81094 14.4106 9.4822Z" stroke="currentColor" stroke-width="1.22047" stroke-miterlimit="10" stroke-linecap="round" stroke-linejoin="round"></path> <path d="M11.8077 11.252H3.57455C3.27187 11.252 2.96918 11.0079 2.96918 10.6417C2.96918 10.3366 3.21133 10.0315 3.57455 10.0315H11.8077C12.1104 10.0315 12.4131 10.2756 12.4131 10.6417C12.4131 10.9468 12.1709 11.252 11.8077 11.252Z" fill="currentColor"></path> <path d="M11.8077 13.2656H3.57455C3.27187 13.2656 2.96918 13.0215 2.96918 12.6554C2.96918 12.3503 3.21133 12.0452 3.57455 12.0452H11.8077C12.1104 12.0452 12.4131 12.2893 12.4131 12.6554C12.4131 13.0215 12.1709 13.2656 11.8077 13.2656Z" fill="currentColor"></path> <path d="M9.44658 15.3406H5.93539C5.63271 15.3406 5.33002 15.0965 5.33002 14.7304C5.33002 14.4252 5.57217 14.1201 5.93539 14.1201H9.44658C9.74927 14.1201 10.052 14.3642 10.052 14.7304C10.052 15.0965 9.80981 15.3406 9.44658 15.3406Z" fill="currentColor"></path> <path d="M20.0406 27.179V20.8325C20.0406 20.1613 20.5855 19.6731 21.1909 19.6731H30.6348C31.3007 19.6731 31.785 20.2223 31.785 20.8325V27.24C31.785 27.9113 31.2401 28.3995 30.6348 28.3995H21.2514C20.5855 28.3995 20.0406 27.8503 20.0406 27.179Z" stroke="currentColor" stroke-width="1.22047" stroke-miterlimit="10" stroke-linecap="round" stroke-linejoin="round"></path> <path d="M27.3657 23.0296L26.8814 23.5178C26.8209 23.5789 26.8209 23.7009 26.8814 23.7619L28.2132 25.1045C28.2738 25.1655 28.2738 25.2875 28.2132 25.3485L27.3052 26.2639C27.2446 26.3249 27.1235 26.3249 27.063 26.2639L25.7312 24.9214C25.6706 24.8604 25.5496 24.8604 25.489 24.9214L24.9442 25.4096C24.7626 25.5926 24.5204 25.4706 24.4599 25.2875L23.7334 21.8702C23.7334 21.7482 23.794 21.6261 23.9756 21.6871L27.3052 22.5415C27.4868 22.6025 27.5473 22.8466 27.3657 23.0296Z" stroke="currentColor" stroke-width="0.610236" stroke-miterlimit="10"></path> </svg>