<svg viewBox="0 0 37 33" fill="none" xmlns="http://www.w3.org/2000/svg"> <path d="M7.94896 11.9396C7.89309 12.4464 7.83722 13.0096 7.83722 13.5165C7.83722 14.1923 7.89309 14.8681 8.00483 15.5439C8.34005 17.7404 9.23397 19.8241 10.5748 21.5137" stroke="currentColor" stroke-width="1.12637" stroke-miterlimit="10" stroke-linecap="round" stroke-linejoin="round"></path> <path d="M8.73114 8.89833C9.40158 7.20879 10.3514 5.63188 11.6364 4.39287C13.927 2.02751 17.1675 0.563232 20.6873 0.563232C24.2071 0.563232 27.4475 2.02751 29.7941 4.33656C32.0847 6.70192 33.5374 9.91206 33.5374 13.4601C33.5374 13.9107 33.6491 14.3612 33.8726 14.6991L35.9956 18.1345C36.3309 18.6977 35.9398 19.4298 35.2693 19.4298H34.7106C34.0402 19.4298 33.5374 19.993 33.5374 20.6125V24.2169C33.5374 25.3996 32.5876 26.3007 31.4702 26.3007H29.6823C29.0119 26.3007 28.5091 26.8639 28.5091 27.4834V31.8199H16.9999C16.9999 30.3556 16.6647 28.9476 16.106 27.6523" stroke="currentColor" stroke-width="1.12637" stroke-miterlimit="10" stroke-linecap="round" stroke-linejoin="round"></path> <path d="M17.0558 17.6277C17.0558 18.923 17.8938 20.0493 19.123 20.3309C20.7991 20.7252 22.3076 19.4862 22.4193 17.9092C22.5869 17.9092 22.6986 17.9656 22.8663 17.9656C24.2071 17.9656 25.4363 16.8392 25.4921 15.4876C25.548 15.037 25.4363 14.6428 25.3245 14.2486C26.1067 13.9107 26.6654 13.1222 26.6654 12.2211C26.6654 11.32 26.1626 10.5316 25.3804 10.1936C25.548 9.85574 25.6597 9.46151 25.6597 9.01097C25.6597 7.65933 24.5982 6.58928 23.2573 6.58928C22.9221 6.58928 22.5869 6.6456 22.3076 6.81455C22.3076 6.70192 22.3634 6.58928 22.3634 6.47664C22.3634 4.56182 20.2404 3.21019 18.2291 4.67446C17.5027 5.18132 17.1117 6.0261 17.1117 6.92719L17.0558 17.6277Z" stroke="currentColor" stroke-width="1.12637" stroke-miterlimit="10" stroke-linecap="round" stroke-linejoin="round"></path> <path d="M22.3075 6.81458C22.3075 6.81458 22.0282 7.88462 21.0225 8.33517" stroke="currentColor" stroke-width="1.12637" stroke-miterlimit="10" stroke-linecap="round" stroke-linejoin="round"></path> <path d="M25.3804 10.1936C25.3804 10.1936 24.2071 9.79934 23.2573 10.982" stroke="currentColor" stroke-width="1.12637" stroke-miterlimit="10" stroke-linecap="round" stroke-linejoin="round"></path> <path d="M25.3245 14.2486C25.3245 14.2486 23.4249 14.5302 22.8103 13.7417" stroke="currentColor" stroke-width="1.12637" stroke-miterlimit="10" stroke-linecap="round" stroke-linejoin="round"></path> <path d="M22.4193 17.9655C22.4193 17.9655 21.3019 17.0644 21.0784 15.8817" stroke="currentColor" stroke-width="1.12637" stroke-miterlimit="10" stroke-linecap="round" stroke-linejoin="round"></path> <path d="M17.0558 10.5315H10.519" stroke="currentColor" stroke-width="1.12637" stroke-miterlimit="10" stroke-linecap="round" stroke-linejoin="round"></path> <path d="M17.0558 17.0082H12.9214" stroke="currentColor" stroke-width="1.12637" stroke-miterlimit="10" stroke-linecap="round" stroke-linejoin="round"></path> <path d="M17.0558 8.22254H13.7594C13.4801 8.22254 13.1449 8.1099 12.9214 7.94095L10.1279 5.51926C9.90441 5.29399 9.62506 5.23767 9.28984 5.23767H6.7757" stroke="currentColor" stroke-width="1.12637" stroke-miterlimit="10" stroke-linecap="round" stroke-linejoin="round"></path> <path d="M17.0557 13.3474H12.0274C11.5805 13.3474 11.0777 13.46 10.6866 13.7416L9.06635 14.7554C8.67526 14.9806 8.2283 15.1496 7.72547 15.1496H5.15546" stroke="currentColor" stroke-width="1.12637" stroke-miterlimit="10" stroke-linecap="round" stroke-linejoin="round"></path> <path d="M3.03241 5.12498C3.03241 6.13871 3.87046 6.98348 4.87611 6.98348C5.88177 6.98348 6.71982 6.13871 6.71982 5.12498C6.71982 4.11125 5.88177 3.26648 4.87611 3.26648C3.87046 3.26648 3.03241 4.11125 3.03241 5.12498Z" stroke="currentColor" stroke-width="1.12637" stroke-miterlimit="10" stroke-linecap="round" stroke-linejoin="round"></path> <path d="M7.16681 10.5316C7.16681 11.4327 7.89312 12.2211 8.84291 12.2211C9.73682 12.2211 10.519 11.489 10.519 10.5316C10.519 9.6305 9.79269 8.84204 8.84291 8.84204C7.94899 8.84204 7.16681 9.6305 7.16681 10.5316Z" stroke="currentColor" stroke-width="1.12637" stroke-miterlimit="10" stroke-linecap="round" stroke-linejoin="round"></path> <path d="M9.96027 17.0081C9.96027 17.8529 10.6307 18.5287 11.4688 18.5287C12.3068 18.5287 12.9772 17.8529 12.9772 17.0081C12.9772 16.1634 12.3068 15.4875 11.4688 15.4875C10.6307 15.5439 9.96027 16.2197 9.96027 17.0081Z" stroke="currentColor" stroke-width="1.12637" stroke-miterlimit="10" stroke-linecap="round" stroke-linejoin="round"></path> <path d="M1.30048 15.1496C1.30048 16.2197 2.19439 17.1207 3.25592 17.1207C4.31745 17.1207 5.21136 16.2197 5.21136 15.1496C5.21136 14.0796 4.31745 13.1785 3.25592 13.1785C2.19439 13.1785 1.30048 14.0796 1.30048 15.1496Z" stroke="currentColor" stroke-width="1.12637" stroke-miterlimit="10" stroke-linecap="round" stroke-linejoin="round"></path> <path d="M16.2177 26.6949C16.2177 29.6234 13.8711 31.9888 11.0218 31.9888C8.17242 31.9888 5.77002 29.6234 5.77002 26.6949C5.77002 23.7663 8.11655 21.4573 11.0218 21.4573C13.927 21.4573 16.2177 23.8226 16.2177 26.6949Z" stroke="currentColor" stroke-width="1.12637" stroke-miterlimit="10" stroke-linecap="round" stroke-linejoin="round"></path> <path d="M10.1837 28.9476C10.0161 28.9476 9.90437 28.8913 9.79263 28.7787L8.22828 27.2018C8.0048 26.9765 8.0048 26.5823 8.22828 26.357C8.45176 26.1317 8.84285 26.1317 9.06633 26.357L10.2396 27.5397L13.0331 24.7238C13.2566 24.4985 13.6477 24.4985 13.8711 24.7238C14.0946 24.949 14.0946 25.3433 13.8711 25.5685L10.6866 28.7787C10.4631 28.8913 10.3513 28.9476 10.1837 28.9476Z" fill="currentColor"></path> </svg>