 <svg viewBox="0 0 32 26" fill="none" xmlns="http://www.w3.org/2000/svg"> <path d="M30.453 5.16187V23.0759C30.453 22.3069 29.9589 21.6283 29.2851 21.3117C29.0606 21.2212 28.836 21.1759 28.5665 21.1759H2.87338C1.84026 21.1759 1.03174 20.3617 1.03174 19.3212V18.3712H1.07666C1.52584 17.8284 2.1996 17.5117 2.91829 17.5117C3.63698 17.5117 4.31075 17.8284 4.75993 18.3712H4.80485V3.30713H28.5665C29.6445 3.30713 30.453 4.1214 30.453 5.16187Z" stroke="currentColor" stroke-width="1.11083" stroke-miterlimit="10" stroke-linecap="round" stroke-linejoin="round"></path> <path d="M30.4531 23.0759C30.4531 24.1164 29.5997 24.9759 28.5666 24.9759H26.7249C26.4105 24.9759 26.1859 24.7045 26.1859 24.4331V21.2212H28.5666C28.8361 21.2212 29.0607 21.2664 29.2852 21.3569C30.0039 21.6283 30.4531 22.3069 30.4531 23.0759Z" stroke="currentColor" stroke-width="1.11083" stroke-miterlimit="10" stroke-linecap="round" stroke-linejoin="round"></path> <path d="M1.84026 17.5569C2.01993 17.5569 2.19961 17.5569 2.37928 17.6021C1.84026 17.7378 1.39108 18.0093 1.07666 18.4164H1.03174V17.6926C1.30125 17.6021 1.57075 17.5569 1.84026 17.5569Z" fill="currentColor"></path> <path d="M4.80485 2.89997V18.4164H4.75993C4.31075 17.8736 3.63698 17.5569 2.91829 17.5569C2.1996 17.5569 1.52584 17.8736 1.07666 18.4164H1.03174V2.89997C1.03174 2.62855 1.07666 2.40236 1.16649 2.17617C1.48092 1.45237 2.15469 1 2.91829 1C3.95141 1 4.80485 1.85951 4.80485 2.89997Z" stroke="currentColor" stroke-width="1.11083" stroke-miterlimit="10" stroke-linecap="round" stroke-linejoin="round"></path> <path d="M18.4602 7.74031C18.8195 7.55936 19.1789 7.42364 19.5832 7.33317C19.673 7.28793 19.7628 7.24269 19.8077 7.15222L20.1671 6.15699C20.2569 5.93081 20.3917 5.84033 20.5264 5.84033L21.5146 5.88557C21.6494 5.88557 21.7841 5.97604 21.7841 6.11176L22.0536 7.19746C22.0986 7.28793 22.1435 7.37841 22.2782 7.42364C22.6376 7.55936 22.9969 7.74031 23.3563 7.96649C23.4461 8.01173 23.5808 8.05697 23.6707 8.01173L24.7038 7.55936C24.8386 7.51412 24.9733 7.51412 25.0631 7.64983L25.7369 8.41887C25.8267 8.50934 25.8267 8.69029 25.7818 8.78077L25.1979 9.73076C25.153 9.82123 25.153 9.95694 25.1979 10.0474C25.3776 10.4093 25.5572 10.7712 25.6022 11.1331C25.6022 11.2688 25.692 11.4045 25.8267 11.4045L26.77 11.7664C26.9946 11.8569 27.0845 11.9926 27.0845 12.1283L27.0395 13.1236C27.0395 13.2593 26.9497 13.395 26.8149 13.395L25.7369 13.6664C25.6471 13.7117 25.5572 13.7569 25.5123 13.8926C25.3776 14.2545 25.1979 14.6164 24.9733 14.9783C24.9284 15.0688 24.8835 15.1593 24.9284 15.295L25.5123 16.5616L24.4343 17.5568L23.2664 16.833C23.1766 16.7878 23.0418 16.7878 22.952 16.833C22.5927 17.014 22.2333 17.1497 21.829 17.2402C21.7392 17.2854 21.6494 17.3307 21.6045 17.4211L21.2451 18.4164C21.1553 18.6425 21.0205 18.733 20.8858 18.733L19.8976 18.6878C19.7628 18.6878 19.6281 18.5973 19.6281 18.4616L19.3586 17.3759C19.3136 17.2854 19.2687 17.1949 19.134 17.1497C18.7746 17.014 18.4153 16.833 18.0559 16.6069C17.8313 16.3807 17.6966 16.3807 17.6068 16.4259L16.5736 16.8783C16.4389 16.9235 16.3041 16.9235 16.2143 16.7878L15.5405 16.0188C15.4507 15.9283 15.4507 15.7473 15.4956 15.6569L16.0795 14.7069C16.1245 14.6164 16.1245 14.4807 16.0795 14.3902C15.8999 14.0283 15.7651 13.6664 15.6753 13.2593C15.6304 13.1688 15.5854 13.0783 15.4956 13.0331L14.5074 12.6712C14.2828 12.5807 14.193 12.445 14.193 12.3093L14.2379 11.3141C14.2379 11.1784 14.3277 11.0426 14.4625 11.0426L15.5405 10.7712C15.6304 10.726 15.7202 10.6807 15.7651 10.545C15.8999 10.1831 16.0795 9.82123 16.3041 9.45933C16.3491 9.36886 16.394 9.23314 16.3491 9.14267L15.8999 8.19268C15.81 7.96649 15.855 7.83078 15.9448 7.74031L16.7084 7.06174C16.7982 6.97127 16.9779 6.97127 17.0677 7.01651L17.9661 7.55936C18.2356 7.78554 18.3254 7.78554 18.4602 7.74031Z" stroke="currentColor" stroke-width="1.11083" stroke-miterlimit="10" stroke-linecap="round" stroke-linejoin="round"></path> <path d="M11.3181 8.73546V17.9187C11.3181 18.2806 11.0486 18.552 10.6893 18.552H9.02729C8.66795 18.552 8.39844 18.2806 8.39844 17.9187V8.64499C8.39844 8.50927 8.44336 8.32832 8.48827 8.19261L8.53319 8.10214L9.61122 6.02121C9.70106 5.84026 9.92565 5.84026 10.0155 6.02121L11.0935 8.10214C11.2732 8.28309 11.3181 8.50927 11.3181 8.73546Z" stroke="currentColor" stroke-width="1.11083" stroke-miterlimit="10" stroke-linecap="round" stroke-linejoin="round"></path> <path d="M9.02729 18.5972H10.6893C11.0486 18.5972 11.3181 18.3257 11.3181 17.9638V16.7424H8.39844V17.9638C8.39844 18.3257 8.66795 18.5972 9.02729 18.5972Z" stroke="currentColor" stroke-width="0.555416" stroke-miterlimit="10"></path> <path d="M11.3181 8.46402V8.69021H8.39844V8.46402C8.39844 8.41878 8.39844 8.37355 8.44336 8.28307L8.57811 8.05688H11.1384L11.2732 8.28307C11.3181 8.37355 11.3181 8.41878 11.3181 8.46402Z" fill="currentColor"></path> <path d="M20.616 14.7976C22.0052 14.7976 23.1314 13.6634 23.1314 12.2643C23.1314 10.8652 22.0052 9.73096 20.616 9.73096C19.2268 9.73096 18.1006 10.8652 18.1006 12.2643C18.1006 13.6634 19.2268 14.7976 20.616 14.7976Z" stroke="currentColor" stroke-width="1.11083" stroke-miterlimit="10" stroke-linecap="round" stroke-linejoin="round"></path>
                            </svg>