<svg viewBox="0 0 35 36" fill="none" xmlns="http://www.w3.org/2000/svg"> <path d="M17.3897 10.9742V7.05371" stroke="currentColor" stroke-width="1.15309" stroke-miterlimit="10" stroke-linecap="round" stroke-linejoin="round"></path> <path d="M17.3897 29.1932V25.2727" stroke="currentColor" stroke-width="1.15309" stroke-miterlimit="10" stroke-linecap="round" stroke-linejoin="round"></path> <path d="M11.1553 21.5251L6.80841 23.8313" stroke="currentColor" stroke-width="1.15309" stroke-miterlimit="10" stroke-linecap="round" stroke-linejoin="round"></path> <path d="M27.9137 12.7615L23.7385 14.9524" stroke="currentColor" stroke-width="1.15309" stroke-miterlimit="10" stroke-linecap="round" stroke-linejoin="round"></path> <path d="M11.0409 14.9524L6.80841 12.7615" stroke="currentColor" stroke-width="1.15309" stroke-miterlimit="10" stroke-linecap="round" stroke-linejoin="round"></path> <path d="M27.9138 23.8313L23.6241 21.5251" stroke="currentColor" stroke-width="1.15309" stroke-miterlimit="10" stroke-linecap="round" stroke-linejoin="round"></path> <path d="M30.6592 14.4912V22.044C29.458 22.044 28.4285 22.7359 27.9138 23.7737C27.7422 24.1772 27.6278 24.5808 27.6278 25.0421C27.6278 25.6763 27.7994 26.1952 28.1425 26.714L20.1923 30.9805C19.7348 29.8851 18.6481 29.1355 17.3898 29.1355C16.1315 29.1355 15.1019 29.8851 14.6444 30.9805L6.69416 26.714C6.98014 26.2528 7.20892 25.6763 7.20892 25.0421C7.20892 24.5808 7.09453 24.1196 6.92294 23.7737C6.46538 22.7359 5.37866 22.044 4.17755 22.044V14.4912C5.37866 14.4912 6.46538 13.7994 6.92294 12.7039C7.09453 12.3004 7.20892 11.8968 7.20892 11.4355C7.20892 10.8013 7.03734 10.2248 6.69416 9.76356L14.8159 5.43945C15.3307 6.41958 16.303 7.05379 17.447 7.05379C18.5909 7.05379 19.6204 6.41958 20.1351 5.43945L28.1997 9.76356C27.9138 10.2248 27.685 10.8013 27.685 11.4355C27.685 11.8968 27.7994 12.3004 27.971 12.7039C28.3713 13.7994 29.4008 14.4912 30.6592 14.4912Z" stroke="currentColor" stroke-width="1.15309" stroke-miterlimit="10" stroke-linecap="round" stroke-linejoin="round"></path> <path d="M20.3639 4.0557C20.3639 4.57459 20.2496 5.03583 20.0208 5.49707C19.506 6.4772 18.5337 7.1114 17.3326 7.1114C16.1887 7.1114 15.1591 6.4772 14.7016 5.49707C14.4728 5.09349 14.3584 4.57459 14.3584 4.0557C14.3584 2.38371 15.7311 1 17.3898 1C19.0484 1 20.3639 2.38371 20.3639 4.0557Z" stroke="currentColor" stroke-width="1.15309" stroke-miterlimit="10" stroke-linecap="round" stroke-linejoin="round"></path> <path d="M20.3638 32.1912C20.3638 33.8632 19.0483 35.2469 17.3325 35.2469C15.6738 35.2469 14.3011 33.9208 14.3011 32.1912C14.3011 31.7876 14.3583 31.384 14.5299 30.9804C14.9874 29.885 16.0742 29.1355 17.2753 29.1355C18.5336 29.1355 19.5631 29.885 20.0779 30.9804C20.3066 31.384 20.3638 31.7876 20.3638 32.1912Z" stroke="currentColor" stroke-width="1.15309" stroke-miterlimit="10" stroke-linecap="round" stroke-linejoin="round"></path> <path d="M33.6332 25.0996C33.6332 26.7716 32.2605 28.1553 30.6019 28.1553C29.5723 28.1553 28.6 27.5788 28.0853 26.7716C27.7421 26.3104 27.5705 25.7338 27.5705 25.0996C27.5705 24.6384 27.6849 24.1772 27.8565 23.8312C28.314 22.7934 29.4008 22.1016 30.6019 22.1016C32.3177 22.0439 33.6332 23.4277 33.6332 25.0996Z" stroke="currentColor" stroke-width="1.15309" stroke-miterlimit="10" stroke-linecap="round" stroke-linejoin="round"></path> <path d="M7.09448 25.0996C7.09448 25.7338 6.9229 26.2527 6.57972 26.7716C6.06496 27.5788 5.09263 28.1553 4.06311 28.1553C2.40443 28.1553 1.03174 26.7716 1.03174 25.0996C1.03174 23.4277 2.34724 22.0439 4.06311 22.0439C5.26422 22.0439 6.29374 22.7358 6.8085 23.7736C7.03729 24.1772 7.09448 24.6384 7.09448 25.0996Z" stroke="currentColor" stroke-width="1.15309" stroke-miterlimit="10" stroke-linecap="round" stroke-linejoin="round"></path> <path d="M7.09448 11.4932C7.09448 11.9544 6.98009 12.358 6.8085 12.7616C6.35094 13.7994 5.26422 14.5489 4.06311 14.5489C2.40443 14.5489 1.03174 13.1652 1.03174 11.4932C1.03174 9.82121 2.34724 8.4375 4.06311 8.4375C5.09263 8.4375 6.06496 9.01405 6.57972 9.82121C6.9229 10.2825 7.09448 10.859 7.09448 11.4932Z" stroke="currentColor" stroke-width="1.15309" stroke-miterlimit="10" stroke-linecap="round" stroke-linejoin="round"></path> <path d="M33.6332 11.4932C33.6332 13.1652 32.2605 14.5489 30.6019 14.5489C29.4008 14.5489 28.314 13.857 27.8565 12.7616C27.6849 12.358 27.5705 11.9544 27.5705 11.4932C27.5705 10.859 27.7421 10.2825 28.0853 9.82121C28.6 9.01405 29.5723 8.4375 30.6019 8.4375C32.3177 8.4375 33.6332 9.82121 33.6332 11.4932Z" stroke="currentColor" stroke-width="1.15309" stroke-miterlimit="10" stroke-linecap="round" stroke-linejoin="round"></path> <path d="M22.1368 23.3124C20.8785 24.5232 19.2198 25.3303 17.3324 25.3303C15.4449 25.3303 13.7863 24.5808 12.528 23.3124C13.0427 21.9864 14.015 20.9486 15.2733 20.4297C14.301 19.7955 13.6719 18.6424 13.6719 17.374C13.6719 15.3561 15.2733 13.6841 17.3324 13.6841C19.3342 13.6841 20.9929 15.2984 20.9929 17.374C20.9929 18.6424 20.3638 19.7378 19.3914 20.4297C20.6497 20.9486 21.6793 21.9864 22.1368 23.3124Z" stroke="currentColor" stroke-width="1.15309" stroke-miterlimit="10" stroke-linecap="round" stroke-linejoin="round"></path> <path d="M24.482 18.1236C24.482 19.3343 24.196 20.545 23.624 21.5252C22.4229 23.7737 20.0779 25.2727 17.3897 25.2727C14.7015 25.2727 12.3565 23.7737 11.1554 21.5252C10.5834 20.4874 10.2974 19.3343 10.2974 18.1236C10.2974 16.9705 10.5834 15.875 11.041 14.9525C12.1849 12.5887 14.5871 10.9744 17.3897 10.9744C20.1923 10.9744 22.5945 12.5887 23.7384 14.9525C24.196 15.875 24.482 16.9705 24.482 18.1236Z" stroke="currentColor" stroke-width="1.15309" stroke-miterlimit="10" stroke-linecap="round" stroke-linejoin="round"></path> </svg>