<svg viewBox="0 0 38 37" fill="none" xmlns="http://www.w3.org/2000/svg"> <path d="M18.5822 10.8347V6.42603" stroke="currentColor" stroke-width="1.13043" stroke-miterlimit="10" stroke-linecap="round" stroke-linejoin="round"></path> <path d="M22.6193 12.4174L26.0397 8.9696" stroke="currentColor" stroke-width="1.13043" stroke-miterlimit="10" stroke-linecap="round" stroke-linejoin="round"></path> <path d="M31.8151 16.7695H24.4697" stroke="currentColor" stroke-width="1.13043" stroke-miterlimit="10" stroke-linecap="round" stroke-linejoin="round"></path> <path d="M12.6947 16.7695H5.74176" stroke="currentColor" stroke-width="1.13043" stroke-miterlimit="10" stroke-linecap="round" stroke-linejoin="round"></path> <path d="M14.489 12.5305L11.1807 9.19568" stroke="currentColor" stroke-width="1.13043" stroke-miterlimit="10" stroke-linecap="round" stroke-linejoin="round"></path> <path d="M21.2736 3.71304C21.2736 5.23913 20.0401 6.42609 18.5822 6.42609C17.0683 6.42609 15.8907 5.18261 15.8907 3.71304C15.8907 2.18696 17.1243 1 18.5822 1C20.0961 1 21.2736 2.18696 21.2736 3.71304Z" stroke="currentColor" stroke-width="1.13043" stroke-miterlimit="10" stroke-linecap="round" stroke-linejoin="round"></path> <path d="M29.5162 7.38696C29.5162 8.51739 28.619 9.42174 27.4976 9.42174C26.3762 9.42174 25.479 8.51739 25.479 7.38696C25.479 6.25652 26.3762 5.35217 27.4976 5.35217C28.563 5.35217 29.5162 6.25652 29.5162 7.38696Z" stroke="currentColor" stroke-width="1.13043" stroke-miterlimit="10" stroke-linecap="round" stroke-linejoin="round"></path> <path d="M36.5812 16.7696C36.5812 18.1261 35.5159 19.1435 34.2262 19.1435C32.8805 19.1435 31.8151 18.0696 31.8151 16.7696C31.8151 15.4131 32.8805 14.3957 34.2262 14.3957C35.5159 14.3392 36.5812 15.4131 36.5812 16.7696Z" stroke="currentColor" stroke-width="1.13043" stroke-miterlimit="10" stroke-linecap="round" stroke-linejoin="round"></path> <path d="M23.2922 20.387C24.0772 19.3696 24.5258 18.1261 24.5258 16.7696C24.5258 13.4914 21.8904 10.8348 18.6383 10.8348C15.3861 10.8348 12.7507 13.4914 12.7507 16.7696C12.7507 20.0479 15.3861 22.7044 18.6383 22.7044C18.8065 22.7044 18.9747 22.7044 19.1429 22.7044" stroke="currentColor" stroke-width="1.13043" stroke-miterlimit="10" stroke-linecap="round" stroke-linejoin="round"></path> <path d="M18.3018 20.1044C17.9093 20.0479 17.5168 19.9913 17.1243 19.7652C16.844 19.6522 16.5075 19.7652 16.3954 20.0479C16.2832 20.3305 16.3954 20.6696 16.6757 20.7826C17.1804 21.0652 17.7411 21.1783 18.3018 21.2348V20.1044Z" fill="currentColor"></path> <path d="M16.0029 18.8609C16.1711 19.087 16.1711 19.4826 15.8907 19.6522C15.7786 19.7087 15.6664 19.7653 15.5543 19.7653C15.3861 19.7653 15.2179 19.7087 15.1057 19.5392C14.7132 19.0305 14.3768 18.4087 14.2086 17.7305C14.1525 17.4479 14.3207 17.1087 14.6571 17.0522C14.9375 16.9957 15.2739 17.1653 15.33 17.5044C15.4421 18.0131 15.6664 18.4653 16.0029 18.8609Z" fill="currentColor"></path> <path d="M19.7597 12.9261C19.8719 12.6435 20.2083 12.5305 20.4886 12.6435C21.1054 12.9261 21.6101 13.3783 22.0586 13.887C22.2829 14.1131 22.2269 14.5088 22.0026 14.6783C21.8904 14.7348 21.7783 14.7914 21.6661 14.7914C21.4979 14.7914 21.3297 14.7348 21.2176 14.5653C20.8811 14.1696 20.4886 13.8305 20.0401 13.6609C19.7597 13.5479 19.6476 13.2088 19.7597 12.9261Z" fill="currentColor"></path> <path d="M23.0679 16.7696C23.0679 17.1087 23.0118 17.4478 22.9558 17.7305C22.8997 18.0131 22.6754 18.1826 22.3951 18.1826C22.339 18.1826 22.339 18.1826 22.2829 18.1826C22.0026 18.1261 21.7783 17.8435 21.8343 17.5044C21.8904 17.2783 21.8904 17.0522 21.8904 16.7696C21.8904 16.487 21.8343 16.2609 21.7783 15.9783C21.7222 15.6957 21.8904 15.3565 22.2268 15.3C22.5072 15.2435 22.8436 15.4131 22.8997 15.7522C23.0679 16.0348 23.0679 16.3739 23.0679 16.7696Z" fill="currentColor"></path> <path d="M14.2086 15.7521C14.3768 15.0739 14.6572 14.4521 15.0497 13.9434C15.2179 13.7174 15.6104 13.6608 15.8347 13.8304C16.059 14 16.115 14.3956 15.9468 14.6217C15.6104 15.0174 15.3861 15.4695 15.33 15.9782C15.274 16.2608 15.0497 16.4304 14.7693 16.4304C14.7132 16.4304 14.7132 16.4304 14.6572 16.4304C14.3768 16.3739 14.1525 16.0913 14.2086 15.7521Z" fill="currentColor"></path> <path d="M16.3954 13.4348C16.2832 13.1522 16.3954 12.813 16.6757 12.7C17.2925 12.4174 17.9093 12.2478 18.5822 12.2478C18.9186 12.2478 19.1429 12.4739 19.1429 12.813C19.1429 13.1522 18.9186 13.3782 18.5822 13.3782C18.0775 13.3782 17.5729 13.4913 17.1243 13.7174C17.0683 13.7739 16.9561 13.7739 16.9 13.7739C16.6758 13.7739 16.5075 13.6608 16.3954 13.4348Z" fill="currentColor"></path> <path d="M22.0586 18.7478C21.8343 18.5782 21.4418 18.5782 21.2736 18.8608C21.1054 19.0869 20.8811 19.313 20.6568 19.4826V20.7826C21.2175 20.5 21.7222 20.0478 22.1707 19.5391C22.339 19.313 22.2829 18.9174 22.0586 18.7478Z" fill="currentColor"></path> <path d="M11.7975 7.72607C11.7975 8.8565 10.9003 9.76085 9.7789 9.76085C8.65746 9.76085 7.76031 8.8565 7.76031 7.72607C7.76031 6.59563 8.65746 5.69128 9.7789 5.69128C10.9003 5.69128 11.7975 6.59563 11.7975 7.72607Z" stroke="currentColor" stroke-width="1.13043" stroke-miterlimit="10" stroke-linecap="round" stroke-linejoin="round"></path> <path d="M23.18 35.6478H31.0301L31.3665 35.5348C31.9833 35.3087 32.3197 34.6304 32.1515 34.0087L30.7497 29.4304C30.6376 29.0913 30.2451 28.8652 29.9087 28.9783L22.5633 31.2391C22.2268 31.3522 22.0025 31.7478 22.1147 32.087L23.18 35.6478Z" stroke="currentColor" stroke-width="1.13043" stroke-miterlimit="10" stroke-linecap="round" stroke-linejoin="round"></path> <path d="M28.2826 20.613L29.6283 25.0217C29.7404 25.4739 29.6844 25.9261 29.4601 26.3217C29.2358 26.7174 29.1797 27.1696 29.2919 27.6217L29.6844 29.0348L22.7315 31.1261L22.2829 29.713C22.1708 29.3174 21.8904 28.9217 21.4979 28.7522L17.3486 26.6043C16.7879 26.3217 16.5636 25.5869 16.9 25.0217C17.0682 24.7391 17.2925 24.5696 17.5729 24.4565C17.8532 24.3435 18.1897 24.4 18.47 24.5696L19.8718 25.3043L17.685 17.6739C17.5168 17.0522 17.8532 16.3174 18.47 16.1478C18.7504 16.0913 19.0868 16.0913 19.3111 16.2609C19.5915 16.4304 19.8157 16.6565 19.8718 16.9391L21.1054 21.2913C20.9372 20.6696 21.2736 19.9913 21.8904 19.8217C22.2268 19.7087 22.5072 19.7652 22.7875 19.9348C23.0679 20.1043 23.2922 20.3304 23.3483 20.613L23.5725 21.2913C23.4043 20.6696 23.7408 19.9913 24.3576 19.8217C24.694 19.7087 24.9743 19.7652 25.2547 19.9348C25.5351 20.1043 25.7593 20.3304 25.8154 20.613L26.0397 21.2913C25.8715 20.6696 26.2079 19.9913 26.8247 19.8217C27.1611 19.7087 27.4415 19.7652 27.7219 19.9348C28.0022 20.0478 28.1704 20.2739 28.2826 20.613Z" stroke="currentColor" stroke-width="1.13043" stroke-miterlimit="10" stroke-linecap="round" stroke-linejoin="round"></path> <path d="M26.0397 21.2914L26.3762 22.4218" stroke="currentColor" stroke-width="1.13043" stroke-miterlimit="10" stroke-linecap="round" stroke-linejoin="round"></path> <path d="M24.0211 22.7044L23.5726 21.2914" stroke="currentColor" stroke-width="1.13043" stroke-miterlimit="10" stroke-linecap="round" stroke-linejoin="round"></path> <path d="M20.9932 20.8391L21.7782 23.5522" stroke="currentColor" stroke-width="1.13043" stroke-miterlimit="10" stroke-linecap="round" stroke-linejoin="round"></path> <path d="M29.9647 32.4826C29.7965 33.0479 29.2919 33.3305 28.7311 33.2174C28.1704 33.0479 27.8901 32.5392 28.0022 31.9739C28.1704 31.4087 28.7311 31.1261 29.2358 31.2392C29.7965 31.3522 30.0769 31.9174 29.9647 32.4826Z" fill="currentColor"></path> <path d="M5.74176 16.6001C5.74176 17.9001 4.6764 18.974 3.38675 18.974C2.0971 18.974 1.03174 17.9001 1.03174 16.6001C1.03174 15.3001 2.0971 14.2262 3.38675 14.2262C4.6764 14.2262 5.74176 15.3001 5.74176 16.6001Z" stroke="currentColor" stroke-width="1.13043" stroke-miterlimit="10" stroke-linecap="round" stroke-linejoin="round"></path> </svg>